<svg width="42" height="42" viewBox="0 0 42 42" fill="none" xmlns="http://www.w3.org/2000/svg">
<rect width="42" height="42" rx="10" fill="#5F7F6E"/>
<path d="M28.0369 9.54569C28.9325 10.0973 29.7605 10.7519 30.504 11.4961C31.2656 12.2577 31.9137 13.085 32.4543 13.9631M28.0369 9.54569L22.8877 15.7253M28.0369 9.54569C25.9194 8.24725 23.4839 7.56 21 7.56C18.5161 7.56 16.0807 8.24725 13.9632 9.54569M32.4543 13.9631L26.2747 19.1124M32.4543 13.9631C33.7528 16.0806 34.44 18.5161 34.44 21C34.44 23.4839 33.7528 25.9194 32.4543 28.0369M22.8877 15.7253C23.6676 16.0042 24.3756 16.4531 24.9605 17.0395C25.547 17.6244 25.9959 18.3324 26.2747 19.1124M22.8877 15.7253C21.6668 15.2902 20.3332 15.2902 19.1124 15.7253M13.9632 9.54569L19.1124 15.7253M13.9632 9.54569C13.0675 10.0973 12.2395 10.7519 11.4961 11.4961C10.7519 12.2395 10.0973 13.0675 9.5457 13.9631M26.2747 19.1124C26.7098 20.3332 26.7098 21.6668 26.2747 22.8876M32.4543 28.0369L26.2747 22.8876M32.4543 28.0369C31.9027 28.9325 31.2481 29.7605 30.504 30.5039C29.7423 31.2656 28.915 31.9137 28.0369 32.4543M26.2747 22.8876C26.0044 23.6433 25.5653 24.3542 24.9605 24.9605C24.3757 25.547 23.6676 25.9959 22.8877 26.2747M19.1124 15.7253C18.3324 16.0041 17.6244 16.453 17.0395 17.0395C16.4347 17.6458 15.9957 18.3567 15.7254 19.1124M22.8877 26.2747L28.0369 32.4543M22.8877 26.2747C21.6668 26.7098 20.3332 26.7098 19.1124 26.2747M28.0369 32.4543C25.9194 33.7528 23.4839 34.44 21 34.44C18.5161 34.44 16.0807 33.7528 13.9632 32.4543M13.9632 32.4543L19.1124 26.2747M13.9632 32.4543C13.0675 31.9027 12.2395 31.2481 11.4961 30.5039C10.7519 29.7605 10.0973 28.9325 9.5457 28.0369M19.1124 26.2747C18.3324 25.9959 17.6244 25.547 17.0395 24.9605C16.4531 24.3756 16.0042 23.6675 15.7254 22.8876M15.7254 22.8876L9.5457 28.0369M15.7254 22.8876C15.2902 21.6668 15.2902 20.3332 15.7254 19.1124M9.5457 28.0369C8.24726 25.9194 7.56001 23.4839 7.56001 21C7.56001 18.5161 8.24726 16.0806 9.5457 13.9631M9.5457 13.9631L15.7254 19.1124" stroke="#F1F1F1" stroke-width="2.5" stroke-linecap="round" stroke-linejoin="round"/>
</svg>
